<svg height='100px' width='100px'  fill="#000000" xmlns="http://www.w3.org/2000/svg" xmlns:xlink="http://www.w3.org/1999/xlink" version="1.1" x="0px" y="0px" viewBox="0 0 96 96" enable-background="new 0 0 96 96" xml:space="preserve"><path d="M3.625,81.375h88.75v-66.75H3.625V81.375z M7.386,54.073c1.583,0,2.923,1.013,3.437,2.421h16.959l3.327-17.701  c0.114-0.605,0.673-1.031,1.267-1.019c0.616,0.019,1.125,0.483,1.202,1.094l2.78,22.196l3.073-16.808  c0.108-0.595,0.626-1.025,1.229-1.025c0.005,0,0.011,0,0.017,0c0.61,0.008,1.125,0.456,1.219,1.058l2.233,14.368l5.315-41.399  c0.081-0.632,0.644-1.113,1.26-1.091c0.637,0.011,1.164,0.498,1.224,1.132l4.989,52.527l5.116-26.394  c0.114-0.588,0.629-1.012,1.227-1.012c0.003,0,0.006,0,0.009,0c0.603,0.004,1.116,0.438,1.221,1.031l3.167,17.774l6.074-4.487  c0.215-0.159,0.475-0.245,0.743-0.245h10.704c0.514-1.408,1.854-2.421,3.437-2.421c2.024,0,3.671,1.647,3.671,3.671  s-1.647,3.671-3.671,3.671c-1.583,0-2.923-1.013-3.437-2.421H74.886l-7.363,5.439c-0.348,0.256-0.803,0.314-1.206,0.156  c-0.401-0.16-0.692-0.516-0.768-0.942l-2.341-13.14l-5.488,28.314c-0.114,0.59-0.631,1.012-1.227,1.012c-0.02,0-0.041,0-0.061-0.001  c-0.621-0.03-1.125-0.512-1.184-1.13L50.498,28.68l-5.012,39.034c-0.079,0.618-0.601,1.083-1.223,1.091  c-0.658-0.023-1.156-0.443-1.252-1.058l-2.45-15.768l-3.204,17.525c-0.111,0.607-0.637,1.058-1.265,1.025  c-0.617-0.018-1.128-0.482-1.205-1.094l-2.796-22.327l-2.042,10.867c-0.111,0.591-0.627,1.019-1.229,1.019H10.823  c-0.514,1.408-1.854,2.421-3.437,2.421c-2.024,0-3.671-1.647-3.671-3.671S5.362,54.073,7.386,54.073z"></path></svg>