<?xml version="1.0" encoding="UTF-8" standalone="no"?>
<svg
   xmlns:dc="http://purl.org/dc/elements/1.1/"
   xmlns:cc="http://creativecommons.org/ns#"
   xmlns:rdf="http://www.w3.org/1999/02/22-rdf-syntax-ns#"
   xmlns:svg="http://www.w3.org/2000/svg"
   xmlns="http://www.w3.org/2000/svg"
   xmlns:sodipodi="http://sodipodi.sourceforge.net/DTD/sodipodi-0.dtd"
   xmlns:inkscape="http://www.inkscape.org/namespaces/inkscape"
   inkscape:version="1.0 (4035a4f, 2020-05-01)"
   sodipodi:docname="2.svg"
   id="svg87"
   xml:space="preserve"
   enable-background="new 0 0 96 96"
   viewBox="0 0 96 96"
   y="0px"
   x="0px"
   version="1.1"
   fill="#000000"
   width="100px"
   height="100px"><metadata
     id="metadata93"><rdf:RDF><cc:Work
         rdf:about=""><dc:format>image/svg+xml</dc:format><dc:type
           rdf:resource="http://purl.org/dc/dcmitype/StillImage" /><dc:title></dc:title></cc:Work></rdf:RDF></metadata><defs
     id="defs91" /><sodipodi:namedview
     inkscape:current-layer="layer2"
     inkscape:window-maximized="0"
     inkscape:window-y="38"
     inkscape:window-x="1440"
     inkscape:cy="50"
     inkscape:cx="50"
     inkscape:zoom="4.3312858"
     showgrid="false"
     id="namedview89"
     inkscape:window-height="962"
     inkscape:window-width="1478"
     inkscape:pageshadow="2"
     inkscape:pageopacity="0"
     guidetolerance="10"
     gridtolerance="10"
     objecttolerance="10"
     borderopacity="1"
     bordercolor="#666666"
     pagecolor="#ffffff" /><g
     style="display:inline"
     inkscape:label="Layer 2"
     id="layer2"
     inkscape:groupmode="layer"><rect
       y="14.625"
       x="3.625"
       height="66.75"
       width="88.75"
       id="rect100"
       style="fill:#ffffff;stroke-width:0.96" /><path
       transform="scale(0.96)"
       id="path102"
       d="m 59.254196,71.321248 c -0.0421,-0.850295 -4.857652,-51.577287 -5.009272,-52.76763 -0.07725,-0.606468 -0.293599,-1.255814 -0.480775,-1.442989 -0.463649,-0.463649 -1.542433,-0.428923 -1.979483,0.06372 -0.268639,0.302808 -1.030692,5.667997 -3.041566,21.413965 -1.475716,11.55546 -2.707355,21.159557 -2.736979,21.342438 -0.02962,0.182881 -0.557297,-2.933976 -1.172608,-6.926349 -0.762148,-4.945093 -1.233348,-7.387647 -1.47827,-7.662898 -0.197736,-0.222221 -0.639002,-0.404037 -0.980589,-0.404037 -0.341587,0 -0.785485,0.181816 -0.986441,0.404037 -0.240331,0.265762 -0.884689,3.226116 -1.882809,8.650119 -0.834592,4.535346 -1.528998,8.37947 -1.543126,8.542498 -0.01413,0.16303 -0.679207,-4.842345 -1.477951,-11.12305 -1.346208,-10.585524 -1.489514,-11.44963 -1.962355,-11.832514 -0.647277,-0.524133 -0.968608,-0.519781 -1.637904,0.02219 -0.482111,0.390388 -0.717757,1.395401 -2.287184,9.754609 l -1.7497,9.319379 -8.684579,0.06048 -8.684578,0.06048 -0.470884,-0.761905 C 9.4391724,55.496744 5.3450195,55.741366 4.1438921,58.443848 3.8845681,59.027314 3.8346238,55.688606 3.8270112,37.260762 L 3.8179742,15.38504 H 49.993639 96.169303 v 21.736706 21.736706 l -0.519476,-0.76327 c -0.811046,-1.191671 -1.632331,-1.678231 -3.02814,-1.793982 -1.511593,-0.125353 -2.735571,0.452632 -3.585619,1.693194 l -0.54527,0.795771 h -5.762353 -5.762352 l -3.119768,2.324197 c -1.715874,1.278306 -3.170341,2.273625 -3.232147,2.211819 -0.06181,-0.06181 -0.828841,-4.14663 -1.704519,-9.077386 -0.87568,-4.930757 -1.694308,-9.195911 -1.819171,-9.478118 -0.303298,-0.685485 -1.251358,-0.905339 -1.944778,-0.450993 -0.492191,0.322495 -0.671951,1.015544 -1.877976,7.240397 -2.638339,13.617705 -3.988559,20.265682 -4.013538,19.761167 z"
       style="fill:#000000;stroke-width:0.230878" /></g><g
     style="display:inline"
     inkscape:label="Layer 1"
     id="layer1"
     inkscape:groupmode="layer"><path
       id="path85"
       d="m 3.625,81.375 h 88.75 V 14.625 H 3.625 Z M 7.386,54.073 c 1.583,0 2.923,1.013 3.437,2.421 h 16.959 l 3.327,-17.701 c 0.114,-0.605 0.673,-1.031 1.267,-1.019 0.616,0.019 1.125,0.483 1.202,1.094 l 2.78,22.196 3.073,-16.808 c 0.108,-0.595 0.626,-1.025 1.229,-1.025 0.005,0 0.011,0 0.017,0 0.61,0.008 1.125,0.456 1.219,1.058 l 2.233,14.368 5.315,-41.399 c 0.081,-0.632 0.644,-1.113 1.26,-1.091 0.637,0.011 1.164,0.498 1.224,1.132 l 4.989,52.527 5.116,-26.394 c 0.114,-0.588 0.629,-1.012 1.227,-1.012 0.003,0 0.006,0 0.009,0 0.603,0.004 1.116,0.438 1.221,1.031 l 3.167,17.774 6.074,-4.487 c 0.215,-0.159 0.475,-0.245 0.743,-0.245 h 10.704 c 0.514,-1.408 1.854,-2.421 3.437,-2.421 2.024,0 3.671,1.647 3.671,3.671 0,2.024 -1.647,3.671 -3.671,3.671 -1.583,0 -2.923,-1.013 -3.437,-2.421 H 74.886 l -7.363,5.439 c -0.348,0.256 -0.803,0.314 -1.206,0.156 -0.401,-0.16 -0.692,-0.516 -0.768,-0.942 L 63.208,50.506 57.72,78.82 c -0.114,0.59 -0.631,1.012 -1.227,1.012 -0.02,0 -0.041,0 -0.061,-10e-4 -0.621,-0.03 -1.125,-0.512 -1.184,-1.13 L 50.498,28.68 45.486,67.714 c -0.079,0.618 -0.601,1.083 -1.223,1.091 -0.658,-0.023 -1.156,-0.443 -1.252,-1.058 l -2.45,-15.768 -3.204,17.525 c -0.111,0.607 -0.637,1.058 -1.265,1.025 -0.617,-0.018 -1.128,-0.482 -1.205,-1.094 L 32.091,47.108 30.049,57.975 c -0.111,0.591 -0.627,1.019 -1.229,1.019 H 10.823 c -0.514,1.408 -1.854,2.421 -3.437,2.421 -2.024,0 -3.671,-1.647 -3.671,-3.671 0,-2.024 1.647,-3.671 3.671,-3.671 z" /></g></svg>
